# xmcd CD database file
#
# Track frame offsets:
#	150
#	14150
#	26523
#	39095
#	51726
#	67010
#	80566
#	92825
#	107718
#	120088
#	133190
#	148323
#	162008
#	174266
#	198636
#	213141
#	227968
#	242235
#
# Disc length: 3430 seconds
#
# Revision: 1
# Processed by: cddbd v1.5.2PL0 Copyright (c) Steve Scherf et al.
# Submitted via: CDex 1.51
#
DISCID=020d6412
DTITLE=Louis Jordan 2 - Louis Jordan 1938-1950 Disc 2
DYEAR=1990
DGENRE=Jazz
TTITLE0=Ain't Nobody Here But Us Chickens
TTITLE1=Reed Petite and Gone
TTITLE2=Boogie Woogie Plate
TTITLE3=Barnyard Boogie
TTITLE4=Early In the Morning
TTITLE5=Inflation Blues
TTITLE6=You're Much Too Fat (And That's That)
TTITLE7=Daddy-O
TTITLE8=Cole Slaw
TTITLE9=Onion
TTITLE10=Heed My Warning
TTITLE11=Psycho-Loco
TTITLE12=Baby, It's Cold Outside
TTITLE13=Saturday Night Fish Fry pts 1&2
TTITLE14=Tamburitza Boogie
TTITLE15=Lemonade
TTITLE16=It's a Great Great Pleasure
TTITLE17=Life is So Peculiar
EXTD=YEAR: 1990
EXTT0=
EXTT1=
EXTT2=
EXTT3=
EXTT4=
EXTT5=
EXTT6=
EXTT7=
EXTT8=
EXTT9=
EXTT10=
EXTT11=
EXTT12=
EXTT13=
EXTT14=
EXTT15=
EXTT16=
EXTT17=
PLAYORDER=
